<svg width="128" height="128" viewBox="0 0 128 128" fill="none" xmlns="http://www.w3.org/2000/svg">
<path fill-rule="evenodd" clip-rule="evenodd" d="M0 64C0 28.6538 28.6538 0 64 0C99.3462 0 128 28.6538 128 64C128 96.0835 104.392 122.653 73.6 127.285V97.5613C84.7859 93.6077 92.8 82.9398 92.8 70.4V57.6C92.8 41.6941 79.9059 28.8 64 28.8C48.0941 28.8 35.2 41.6941 35.2 57.6V70.4C35.2 82.9398 43.2141 93.6077 54.4 97.5613V127.285C23.6079 122.653 0 96.0835 0 64ZM41.6 57.6C41.6 45.2288 51.6288 35.2 64 35.2C76.3712 35.2 86.4 45.2288 86.4 57.6V70.4C86.4 81.6848 78.0554 91.0205 67.2 92.5731V128H60.8V92.5731C49.9446 91.0205 41.6 81.6848 41.6 70.4V57.6Z" fill="url(#paint0_linear_2626_28)"/>
<defs>
<linearGradient id="paint0_linear_2626_28" x1="-44.8" y1="-31.36" x2="128" y2="121.408" gradientUnits="userSpaceOnUse">
<stop stop-color="#5B1718"/>
<stop offset="1" stop-color="#A54EFF"/>
</linearGradient>
</defs>
</svg>
