<svg width="20" height="20" viewBox="0 0 20 20" fill="none" xmlns="http://www.w3.org/2000/svg">
<path fill-rule="evenodd" clip-rule="evenodd" d="M14.256 16.5193C14.4706 16.6713 14.7473 16.7093 14.994 16.6159C15.2406 16.5219 15.422 16.3113 15.4766 16.056C16.0559 13.3334 17.4612 6.44219 17.9886 3.96558C18.0286 3.77892 17.9619 3.58492 17.8152 3.46026C17.6686 3.33559 17.4652 3.2996 17.2839 3.36693C14.4886 4.40157 5.88018 7.6315 2.36159 8.93347C2.13826 9.01614 1.99293 9.2308 2.00027 9.46613C2.00827 9.70212 2.16693 9.90678 2.39559 9.97545C3.97355 10.4474 6.04484 11.1041 6.04484 11.1041C6.04484 11.1041 7.01282 14.0273 7.51748 15.514C7.58081 15.7006 7.7268 15.8473 7.91947 15.898C8.11146 15.948 8.31679 15.8953 8.46012 15.76C9.27076 14.9946 10.5241 13.8113 10.5241 13.8113C10.5241 13.8113 12.9053 15.5573 14.256 16.5193ZM6.91616 10.7347L8.03546 14.4267L8.28412 12.0887C8.28412 12.0887 12.6087 8.18816 15.074 5.96487C15.146 5.89954 15.156 5.79021 15.096 5.71354C15.0366 5.63688 14.9273 5.61888 14.8453 5.67088C11.988 7.4955 6.91616 10.7347 6.91616 10.7347Z" fill="white" fill-opacity="0.7"/>
</svg>
