<svg width="20" height="20" viewBox="0 0 20 20" fill="none" xmlns="http://www.w3.org/2000/svg">
<path d="M8.62647 15.6046C5.57934 15.5485 4.5386 15.4981 3.8989 15.3663C3.46609 15.2787 3.08999 15.0843 2.81422 14.8023C2.60108 14.5888 2.43158 14.2632 2.30008 13.8114C2.18728 13.435 2.14334 13.1218 2.08071 12.3568C1.98483 10.6304 1.96197 9.21886 2.08071 7.64172C2.17867 6.77077 2.22616 5.73685 2.87685 5.13366C3.18409 4.85136 3.54149 4.66969 3.94283 4.59459C4.56977 4.47555 7.24079 4.38145 10.0059 4.38145C12.7648 4.38145 15.4418 4.47555 16.0693 4.59459C16.5707 4.68869 17.0409 4.97069 17.317 5.33433C17.9106 6.26821 17.921 7.42947 17.9813 8.33782C18.0062 8.77063 18.0062 11.2282 17.9813 11.661C17.8875 13.0966 17.8121 13.6045 17.599 14.1311C17.4672 14.4636 17.3547 14.639 17.1599 14.8334C16.8545 15.1326 16.4652 15.3317 16.0438 15.404C13.4069 15.6023 11.1678 15.6453 8.62647 15.6046ZM12.6645 9.83631C11.1975 9.05233 9.79278 8.32536 8.35694 7.57285V12.0748C9.86789 11.2535 11.4608 10.5009 12.6707 9.83007L12.6645 9.83631Z" fill="white" fill-opacity="0.7"/>
</svg>
