<svg width="240" height="184" viewBox="0 0 240 184" fill="none" xmlns="http://www.w3.org/2000/svg">
<path fill-rule="evenodd" clip-rule="evenodd" d="M179.84 0.349695C179.865 0.149918 180.035 0 180.236 0H180.283H180.329C180.531 0 180.701 0.149918 180.726 0.349695L181.48 6.38738L190.584 61.5321C190.653 61.9507 191.241 61.9867 191.36 61.5797L191.44 61.3102C191.555 60.9185 192.114 60.932 192.211 61.3288L195.042 73.0093C195.05 73.0401 195.054 73.0717 195.054 73.1034V79.6769C195.054 79.7828 195.011 79.8844 194.937 79.9592L193.574 81.3222C193.499 81.3971 193.397 81.4391 193.291 81.4391H192.259C192.039 81.4391 191.86 81.6179 191.86 81.8384L191.86 92.617C191.86 92.8375 192.039 93.0162 192.259 93.0162H192.658C192.879 93.0162 193.057 93.195 193.057 93.4154V94.2139C193.057 94.4343 192.879 94.6131 192.658 94.6131H192.259C192.039 94.6131 191.86 94.7918 191.86 95.0123V116.57C191.86 116.79 192.039 116.969 192.259 116.969H192.658C192.879 116.969 193.057 117.148 193.057 117.368V118.167C193.057 118.387 192.879 118.566 192.658 118.566H192.259C192.039 118.566 191.86 118.744 191.86 118.965L191.86 175.254H193.856V131.112C193.856 131.003 193.901 130.899 193.98 130.824L211.146 114.438C211.3 114.29 211.543 114.29 211.697 114.438L228.863 130.824C228.942 130.899 228.987 131.003 228.987 131.112L228.987 128.546C228.987 128.326 228.808 128.147 228.587 128.147H227.954C227.599 128.147 227.421 127.717 227.672 127.465L233.495 121.643C233.651 121.487 233.904 121.487 234.059 121.643L239.882 127.465C240.134 127.717 239.956 128.147 239.6 128.147H238.967C238.746 128.147 238.568 128.326 238.568 128.546V175.254H239.527V183.637H0V175.254H81.4561L84.9691 141.294C84.9815 141.175 84.9393 141.056 84.8543 140.971L83.6741 139.791C83.4226 139.539 83.6007 139.109 83.9564 139.109H84.6035C84.8184 139.109 84.9947 138.939 85.0024 138.724L85.3847 128.021C85.3868 127.962 85.3758 127.903 85.3527 127.849L84.2939 125.379C84.231 125.232 84.0867 125.137 83.927 125.137H82.899C82.4896 125.137 82.3455 124.594 82.701 124.391L84.1438 123.566C84.1746 123.549 84.2029 123.527 84.228 123.502L91.2591 116.471C91.334 116.396 91.376 116.295 91.376 116.189V110.765C91.376 110.545 91.5548 110.366 91.7753 110.366H91.8059C92.014 110.366 92.1873 110.206 92.2039 109.999L92.575 105.36C92.6141 104.87 93.3316 104.87 93.3708 105.36L93.7419 109.999C93.7585 110.206 93.9317 110.366 94.1399 110.366H94.1705C94.391 110.366 94.5697 110.545 94.5697 110.765V116.189C94.5697 116.295 94.6118 116.396 94.6867 116.471L101.718 123.502C101.743 123.527 101.771 123.549 101.802 123.566L103.245 124.391C103.6 124.594 103.456 125.137 103.047 125.137H102.019C101.859 125.137 101.715 125.232 101.652 125.379L100.593 127.849C100.57 127.903 100.559 127.962 100.561 128.021L100.943 138.724C100.951 138.939 101.127 139.109 101.342 139.109H101.989C102.345 139.109 102.523 139.539 102.272 139.791L101.091 140.971C101.006 141.056 100.964 141.175 100.977 141.294L104.49 175.254H107.109L107.109 175.242L110.287 71.173C110.289 71.0989 110.271 71.0256 110.233 70.9613L98.6592 50.8993C98.5057 50.6332 98.6978 50.3006 99.005 50.3006H105.5C105.72 50.3006 105.899 50.1219 105.899 49.9014V46.3085C105.899 46.088 105.72 45.9093 105.5 45.9093H100.709C100.489 45.9093 100.31 45.7306 100.31 45.5101V44.7117C100.31 44.4912 100.489 44.3125 100.709 44.3125H109.492C109.712 44.3125 109.891 44.1337 109.891 43.9132V39.5219C109.891 39.3014 109.712 39.1227 109.492 39.1227H103.903C103.682 39.1227 103.504 38.944 103.504 38.7235V37.9251C103.504 37.7046 103.682 37.5259 103.903 37.5259H111.504C111.718 37.5259 111.894 37.3573 111.903 37.1436L113.484 5.03432e-06L115.064 37.1436C115.074 37.3573 115.249 37.5259 115.463 37.5259H123.065C123.285 37.5259 123.464 37.7046 123.464 37.9251V38.7235C123.464 38.944 123.285 39.1227 123.065 39.1227H117.476C117.255 39.1227 117.077 39.3014 117.077 39.5219V43.9132C117.077 44.1337 117.255 44.3125 117.476 44.3125H126.259C126.479 44.3125 126.658 44.4912 126.658 44.7117V45.5101C126.658 45.7306 126.479 45.9093 126.259 45.9093H121.468C121.248 45.9093 121.069 46.088 121.069 46.3085V49.9014C121.069 50.1219 121.248 50.3006 121.468 50.3006H127.963C128.27 50.3006 128.462 50.6332 128.308 50.8993L116.734 70.9613C116.697 71.0256 116.679 71.0989 116.681 71.173L119.859 175.242L119.859 175.254H121.994V128.546C121.994 128.326 121.815 128.147 121.595 128.147H120.962C120.606 128.147 120.428 127.717 120.68 127.465L126.502 121.643C126.658 121.487 126.911 121.487 127.067 121.643L132.89 127.465C133.141 127.717 132.963 128.147 132.607 128.147H131.974C131.754 128.147 131.575 128.326 131.575 128.546V130.008C131.575 130.36 131.996 130.54 132.25 130.297L148.466 114.819C148.72 114.576 149.14 114.756 149.14 115.108C149.14 114.756 149.561 114.576 149.815 114.819L166.582 130.823C166.661 130.899 166.706 131.003 166.706 131.112V175.254H168.706V81.8384C168.706 81.6179 168.527 81.4391 168.306 81.4391H167.274C167.168 81.4391 167.067 81.3971 166.992 81.3222L165.629 79.9592C165.554 79.8844 165.512 79.7828 165.512 79.6769V73.1034C165.512 73.0717 165.516 73.0401 165.523 73.0093L168.355 61.3288C168.451 60.932 169.01 60.9185 169.126 61.3102L169.205 61.5797C169.325 61.9867 169.913 61.9507 169.982 61.5321L179.085 6.38738L179.84 0.349695ZM167.508 93.4154C167.508 93.195 167.687 93.0162 167.907 93.0162H168.306C168.527 93.0162 168.706 93.195 168.706 93.4154V94.2139C168.706 94.4343 168.527 94.6131 168.306 94.6131H167.907C167.687 94.6131 167.508 94.4343 167.508 94.2139V93.4154ZM168.706 117.368C168.706 117.148 168.527 116.969 168.306 116.969H167.907C167.687 116.969 167.508 117.148 167.508 117.368V118.167C167.508 118.387 167.687 118.566 167.907 118.566H168.306C168.527 118.566 168.706 118.387 168.706 118.167V117.368ZM168.306 74.6524C168.306 74.432 168.128 74.2532 167.907 74.2532H167.109C166.888 74.2532 166.71 74.432 166.71 74.6524V79.443C166.71 79.6634 166.888 79.8422 167.109 79.8422H167.907C168.128 79.8422 168.306 79.6634 168.306 79.443V74.6524ZM193.856 74.6524C193.856 74.432 193.677 74.2532 193.457 74.2532H192.658C192.438 74.2532 192.259 74.432 192.259 74.6524V79.443C192.259 79.6634 192.438 79.8422 192.658 79.8422H193.457C193.677 79.8422 193.856 79.6634 193.856 79.443V74.6524ZM103.41 52.6959C103.1 52.6959 102.908 53.0344 103.068 53.3005L103.787 54.4981C103.859 54.6184 103.989 54.692 104.129 54.692H123.637C123.778 54.692 123.908 54.6184 123.98 54.4981L124.698 53.3005C124.858 53.0344 124.666 52.6959 124.356 52.6959H103.41ZM122.36 56.2888C122.67 56.2888 122.862 56.6273 122.702 56.8934L121.984 58.091C121.911 58.2112 121.781 58.2848 121.641 58.2848H106.125C105.985 58.2848 105.855 58.2112 105.783 58.091L105.064 56.8934C104.904 56.6273 105.096 56.2888 105.406 56.2888H122.36ZM107.402 59.8817C107.092 59.8817 106.9 60.2203 107.06 60.4863L107.779 61.684C107.851 61.8042 107.981 61.8778 108.121 61.8778H119.645C119.785 61.8778 119.915 61.8042 119.987 61.684L120.706 60.4863C120.866 60.2203 120.674 59.8817 120.364 59.8817H107.402ZM118.368 63.0754C118.678 63.0754 118.87 63.414 118.71 63.68L117.991 64.8777C117.919 64.9979 117.789 65.0715 117.649 65.0715H110.117C109.977 65.0715 109.847 64.9979 109.775 64.8777L109.056 63.68C108.896 63.414 109.088 63.0754 109.398 63.0754H118.368ZM113.683 156.491C114.235 156.491 114.681 156.044 114.681 155.493C114.681 154.942 114.235 154.495 113.683 154.495C113.132 154.495 112.685 154.942 112.685 155.493C112.685 156.044 113.132 156.491 113.683 156.491ZM114.681 150.702C114.681 151.253 114.235 151.7 113.683 151.7C113.132 151.7 112.685 151.253 112.685 150.702C112.685 150.151 113.132 149.704 113.683 149.704C114.235 149.704 114.681 150.151 114.681 150.702ZM113.683 142.918C114.235 142.918 114.681 142.471 114.681 141.92C114.681 141.368 114.235 140.922 113.683 140.922C113.132 140.922 112.685 141.368 112.685 141.92C112.685 142.471 113.132 142.918 113.683 142.918ZM114.681 137.528C114.681 138.079 114.235 138.526 113.683 138.526C113.132 138.526 112.685 138.079 112.685 137.528C112.685 136.977 113.132 136.53 113.683 136.53C114.235 136.53 114.681 136.977 114.681 137.528ZM113.683 134.135C114.235 134.135 114.681 133.688 114.681 133.137C114.681 132.586 114.235 132.139 113.683 132.139C113.132 132.139 112.685 132.586 112.685 133.137C112.685 133.688 113.132 134.135 113.683 134.135ZM114.681 128.746C114.681 129.297 114.235 129.744 113.683 129.744C113.132 129.744 112.685 129.297 112.685 128.746C112.685 128.194 113.132 127.748 113.683 127.748C114.235 127.748 114.681 128.194 114.681 128.746ZM113.683 125.352C114.235 125.352 114.681 124.905 114.681 124.354C114.681 123.803 114.235 123.356 113.683 123.356C113.132 123.356 112.685 123.803 112.685 124.354C112.685 124.905 113.132 125.352 113.683 125.352ZM114.681 115.172C114.681 115.724 114.235 116.17 113.683 116.17C113.132 116.17 112.685 115.724 112.685 115.172C112.685 114.621 113.132 114.174 113.683 114.174C114.235 114.174 114.681 114.621 114.681 115.172ZM113.683 111.779C114.235 111.779 114.681 111.332 114.681 110.781C114.681 110.23 114.235 109.783 113.683 109.783C113.132 109.783 112.685 110.23 112.685 110.781C112.685 111.332 113.132 111.779 113.683 111.779ZM114.681 106.39C114.681 106.941 114.235 107.388 113.683 107.388C113.132 107.388 112.685 106.941 112.685 106.39C112.685 105.839 113.132 105.392 113.683 105.392C114.235 105.392 114.681 105.839 114.681 106.39ZM113.683 102.997C114.235 102.997 114.681 102.55 114.681 101.999C114.681 101.447 114.235 101 113.683 101C113.132 101 112.685 101.447 112.685 101.999C112.685 102.55 113.132 102.997 113.683 102.997ZM114.681 97.6072C114.681 98.1584 114.235 98.6052 113.683 98.6052C113.132 98.6052 112.685 98.1584 112.685 97.6072C112.685 97.056 113.132 96.6092 113.683 96.6092C114.235 96.6092 114.681 97.056 114.681 97.6072ZM113.683 94.2139C114.235 94.2139 114.681 93.767 114.681 93.2158C114.681 92.6646 114.235 92.2178 113.683 92.2178C113.132 92.2178 112.685 92.6646 112.685 93.2158C112.685 93.767 113.132 94.2139 113.683 94.2139ZM114.681 83.6347C114.681 84.1859 114.235 84.6328 113.683 84.6328C113.132 84.6328 112.685 84.1859 112.685 83.6347C112.685 83.0836 113.132 82.6367 113.683 82.6367C114.235 82.6367 114.681 83.0836 114.681 83.6347ZM113.683 80.2415C114.235 80.2415 114.681 79.7947 114.681 79.2435C114.681 78.6923 114.235 78.2454 113.683 78.2454C113.132 78.2454 112.685 78.6923 112.685 79.2435C112.685 79.7947 113.132 80.2415 113.683 80.2415ZM114.681 74.8521C114.681 75.4033 114.235 75.8502 113.683 75.8502C113.132 75.8502 112.685 75.4033 112.685 74.8521C112.685 74.3009 113.132 73.8541 113.683 73.8541C114.235 73.8541 114.681 74.3009 114.681 74.8521ZM41.2135 129.732L41.5135 156.89C38.9475 156.89 36.454 156.579 34.0685 155.993L40.8607 129.69C40.9767 129.709 41.0944 129.723 41.2135 129.732ZM40.2695 129.545L34.0601 155.991C31.6615 155.402 29.3723 154.534 27.2284 153.425L40.0023 129.446C40.0899 129.482 40.179 129.515 40.2695 129.545ZM38.6505 128.529C38.5681 128.444 38.4895 128.355 38.4149 128.263L15.8916 143.445C17.3203 145.511 18.9921 147.395 20.8658 149.056L38.6505 128.529ZM38.0686 127.763C38.009 127.661 37.9537 127.556 37.9032 127.448L12.3966 136.8C13.2939 139.164 14.4707 141.39 15.8866 143.438L38.0686 127.763ZM37.6872 126.879C37.654 126.766 37.6256 126.651 37.6024 126.534L10.6039 129.51C10.9087 132.043 11.5178 134.483 12.3935 136.792L37.6872 126.879ZM37.5258 125.752C37.5258 125.692 37.5271 125.633 37.5297 125.574L10.6029 122.002C10.4554 123.231 10.3795 124.483 10.3795 125.752C10.3795 127.02 10.4554 128.272 10.6029 129.501L37.5297 125.929L37.5287 125.904L37.5273 125.862C37.5263 125.825 37.5258 125.789 37.5258 125.752ZM37.6024 124.969C37.6256 124.853 37.654 124.737 37.6872 124.624L12.3935 114.711C11.5178 117.02 10.9087 119.46 10.6039 121.994L37.6024 124.969ZM37.9032 124.055C37.9538 123.948 38.009 123.843 38.0686 123.741L15.8866 108.065C14.4707 110.113 13.2939 112.339 12.3966 114.703L37.9032 124.055ZM38.4149 123.24C38.4895 123.148 38.5681 123.059 38.6505 122.974L20.8658 102.447C18.9921 104.108 17.3203 105.992 15.8916 108.058L38.4149 123.24ZM39.1061 122.57C39.2003 122.499 39.2978 122.431 39.3983 122.368L27.0404 98.1762C24.8111 99.3491 22.7414 100.784 20.8724 102.441L39.1061 122.57ZM39.9372 122.085C40.0456 122.038 40.1564 121.996 40.2695 121.959L34.0601 95.5119C31.5942 96.118 29.2438 97.0178 27.0481 98.1722L39.9372 122.085ZM40.8607 121.813C40.9767 121.794 41.0944 121.78 41.2135 121.771L41.5135 94.6131C38.9475 94.6134 36.454 94.9242 34.0685 95.5098L40.8607 121.813ZM39.1061 128.933L20.8724 149.062C22.5963 150.59 24.4909 151.93 26.5241 153.049L39.2979 129.07C39.2326 129.026 39.1686 128.981 39.1061 128.933ZM41.5223 156.89C44.0884 156.89 46.5819 156.579 48.9674 155.993L42.1751 129.69C42.0591 129.709 41.9415 129.723 41.8223 129.732L41.5223 156.89ZM42.7663 129.545L48.9758 155.991C51.3744 155.402 53.6637 154.534 55.8076 153.425L43.0337 129.446C42.9461 129.482 42.8569 129.515 42.7663 129.545ZM26.8529 154.13C31.2445 156.404 36.2312 157.688 41.5179 157.688C46.8047 157.688 51.7915 156.404 56.1831 154.13L57.8728 157.302C52.9775 159.844 47.4155 161.281 41.518 161.281C35.6205 161.281 30.0586 159.844 25.1632 157.302L26.8529 154.13ZM19.4279 168.068H63.6081L58.2483 158.007C56.8395 158.739 55.3767 159.381 53.8674 159.927C54.403 160.1 54.8568 160.498 55.0726 161.059L55.1137 161.166C55.5089 162.195 54.9965 163.355 53.9489 163.698C53.888 163.718 53.827 163.738 53.766 163.758C52.7167 164.095 51.6206 163.458 51.3359 162.393L51.3064 162.282C51.151 161.701 51.2879 161.112 51.6227 160.656C48.7759 161.479 45.7854 161.962 42.6975 162.061C43.1548 162.391 43.4647 162.91 43.4958 163.511L43.5016 163.626C43.5584 164.727 42.7117 165.67 41.6093 165.673L41.518 165.673L41.4267 165.673C40.3243 165.67 39.4776 164.727 39.5343 163.626L39.5402 163.511C39.5712 162.91 39.8812 162.391 40.3384 162.061C37.2506 161.962 34.2601 161.479 31.4133 160.656C31.7481 161.112 31.885 161.701 31.7296 162.282L31.7 162.393C31.4154 163.458 30.3193 164.095 29.27 163.758L29.1697 163.725L29.0871 163.698C28.0395 163.355 27.527 162.195 27.9223 161.166L27.9634 161.059C28.1792 160.498 28.6329 160.1 29.1686 159.927C27.6593 159.381 26.1965 158.739 24.7878 158.007L19.4279 168.068ZM64.5127 168.068L58.9526 157.631C59.9683 157.074 60.9545 156.47 61.9083 155.822C61.7324 156.358 61.7863 156.96 62.1145 157.465L62.1771 157.561C62.7783 158.485 64.0181 158.751 64.9109 158.104C64.9615 158.067 65.012 158.031 65.0624 157.994C65.9522 157.343 66.0807 156.082 65.3864 155.225L65.3142 155.136C64.9352 154.669 64.3796 154.432 63.8159 154.434C66.199 152.578 68.3448 150.433 70.2001 148.049C70.1981 148.613 70.4352 149.169 70.9026 149.548L70.9917 149.62C71.848 150.314 73.1094 150.186 73.7601 149.296C73.797 149.246 73.8337 149.195 73.8704 149.144C74.517 148.252 74.2513 147.012 73.3273 146.411L73.2312 146.348C72.7268 146.02 72.1247 145.966 71.5885 146.142C73.2723 143.663 74.6578 140.966 75.6933 138.101C75.8662 138.637 76.264 139.09 76.8258 139.306L76.9327 139.347C77.9618 139.742 79.1216 139.23 79.4646 138.182C79.4846 138.122 79.5043 138.061 79.524 138C79.8619 136.95 79.2244 135.854 78.1594 135.569L78.0488 135.54C77.4674 135.385 76.878 135.521 76.4224 135.856C77.2451 133.009 77.7289 130.019 77.8274 126.931C78.1577 127.388 78.6767 127.698 79.2778 127.729L79.392 127.735C80.493 127.792 81.4365 126.945 81.439 125.843L81.4391 125.752L81.439 125.66C81.4365 124.558 80.493 123.711 79.392 123.768L79.2778 123.774C78.6767 123.805 78.1577 124.115 77.8274 124.572C77.7289 121.484 77.2451 118.494 76.4224 115.647C76.878 115.982 77.4674 116.119 78.0488 115.963L78.1594 115.934C79.2244 115.649 79.8619 114.553 79.524 113.504C79.5043 113.443 79.4846 113.382 79.4646 113.321C79.1216 112.273 77.9618 111.761 76.9327 112.156L76.8258 112.197C76.264 112.413 75.8662 112.866 75.6933 113.402C74.6578 110.537 73.2724 107.84 71.5885 105.361C72.1247 105.537 72.7268 105.483 73.2312 105.155L73.3273 105.092C74.2513 104.491 74.517 103.251 73.8704 102.359C73.8337 102.308 73.797 102.258 73.7601 102.207C73.1094 101.317 71.848 101.189 70.9917 101.883L70.9026 101.955C70.4352 102.334 70.1981 102.89 70.2001 103.454C68.3448 101.071 66.199 98.9248 63.816 97.0695C64.3796 97.0715 64.9352 96.8344 65.3142 96.3669L65.3864 96.2779C66.0807 95.4215 65.9522 94.1602 65.0624 93.5094C65.012 93.4725 64.9615 93.4358 64.9109 93.3992C64.0181 92.7526 62.7783 93.0182 62.177 93.9422L62.1145 94.0384C61.7863 94.5427 61.7324 95.1448 61.9083 95.681C59.4299 93.9972 56.7324 92.6117 53.8674 91.5763C54.4031 91.4033 54.8568 91.0055 55.0726 90.4437L55.1136 90.3368C55.5089 89.3077 54.9965 88.1479 53.9489 87.8049C53.888 87.785 53.827 87.7652 53.766 87.7455C52.7166 87.4076 51.6206 88.0451 51.3359 89.1101L51.3064 89.2208C51.151 89.8021 51.2879 90.3915 51.6227 90.8471C48.7759 90.0244 45.7854 89.5406 42.6976 89.4421C43.1548 89.1118 43.4647 88.5928 43.4957 87.9917L43.5016 87.8775C43.5584 86.7766 42.7117 85.833 41.6093 85.8305L41.518 85.8304L41.4267 85.8305C40.3243 85.833 39.4776 86.7766 39.5343 87.8775L39.5402 87.9917C39.5712 88.5928 39.8812 89.1118 40.3384 89.4421C37.2506 89.5406 34.2601 90.0244 31.4133 90.8471C31.7481 90.3915 31.885 89.8021 31.7296 89.2208L31.7 89.1101C31.4154 88.0451 30.3193 87.4076 29.27 87.7455C29.209 87.7652 29.148 87.785 29.0871 87.8049C28.0394 88.1479 27.527 89.3077 27.9223 90.3368L27.9634 90.4437C28.1792 91.0055 28.6329 91.4033 29.1686 91.5763C26.3036 92.6117 23.6061 93.9972 21.1277 95.681C21.3036 95.1448 21.2497 94.5427 20.9215 94.0384L20.8589 93.9422C20.2577 93.0182 19.0179 92.7526 18.1251 93.3992C18.0745 93.4358 18.024 93.4725 17.9736 93.5094C17.0838 94.1602 16.9553 95.4215 17.6496 96.2779L17.7218 96.3669C18.1008 96.8344 18.6563 97.0715 19.22 97.0695C16.837 98.9248 14.6912 101.071 12.8359 103.454C12.8379 102.89 12.6008 102.334 12.1334 101.955L12.0443 101.883C11.188 101.189 9.92662 101.317 9.27585 102.207C9.23899 102.258 9.20224 102.308 9.16561 102.359C8.51901 103.251 8.78468 104.491 9.70866 105.092L9.8048 105.155C10.3092 105.483 10.9112 105.537 11.4475 105.361C9.76362 107.84 8.37815 110.537 7.3427 113.402C7.16974 112.866 6.77195 112.413 6.21017 112.197L6.10325 112.156C5.07417 111.761 3.91438 112.273 3.57137 113.321C3.55143 113.382 3.53164 113.443 3.51198 113.504C3.17406 114.553 3.81155 115.649 4.87655 115.934L4.98721 115.963C5.56855 116.119 6.15799 115.982 6.61355 115.647C5.79088 118.494 5.30705 121.484 5.20855 124.572C4.87823 124.115 4.35928 123.805 3.75818 123.774L3.64395 123.768C2.54302 123.711 1.59944 124.558 1.59697 125.66L1.59686 125.752L1.59697 125.843C1.59944 126.945 2.54302 127.792 3.64395 127.735L3.75818 127.729C4.35928 127.698 4.87823 127.388 5.20855 126.931C5.30705 130.019 5.79089 133.009 6.61356 135.856C6.158 135.521 5.56855 135.385 4.98721 135.54L4.87655 135.57C3.81156 135.854 3.17406 136.95 3.51198 138C3.53164 138.061 3.55144 138.122 3.57137 138.182C3.91439 139.23 5.07417 139.743 6.10325 139.347L6.21017 139.306C6.77195 139.09 7.16975 138.637 7.3427 138.101C8.37816 140.966 9.76363 143.663 11.4475 146.142C10.9112 145.966 10.3092 146.02 9.8048 146.348L9.70867 146.411C8.78468 147.012 8.51902 148.252 9.16562 149.144C9.20225 149.195 9.23899 149.246 9.27585 149.296C9.92662 150.186 11.188 150.314 12.0443 149.62L12.1334 149.548C12.6008 149.169 12.8379 148.613 12.8359 148.05C14.6912 150.433 16.837 152.578 19.22 154.434C18.6564 154.432 18.1008 154.669 17.7218 155.136L17.6496 155.225C16.9553 156.082 17.0838 157.343 17.9736 157.994C18.024 158.031 18.0745 158.067 18.1251 158.104C19.0179 158.751 20.2577 158.485 20.8589 157.561L20.9215 157.465C21.2497 156.96 21.3036 156.358 21.1277 155.822C22.0815 156.47 23.0677 157.074 24.0834 157.631L18.5233 168.068H1.59685V169.665L13.5732 169.665V175.254H21.5574V169.665H61.4785V175.254H69.4627V169.665L81.4391 169.665V168.068H64.5127ZM24.4589 156.926C13.451 150.889 5.98818 139.192 5.98818 125.752C5.98818 106.129 21.8954 90.2217 41.518 90.2217C61.1406 90.2217 77.0478 106.129 77.0478 125.752C77.0478 139.192 69.585 150.889 58.5771 156.926L56.8874 153.754C66.7627 148.322 73.4548 137.818 73.4548 125.752C73.4548 108.113 59.1562 93.8146 41.5179 93.8146C23.8797 93.8146 9.58103 108.113 9.58103 125.752C9.58103 137.818 16.2732 148.322 26.1486 153.754L24.4589 156.926ZM41.5223 94.6131C44.0884 94.6134 46.5819 94.9242 48.9674 95.5098L42.1751 121.813C42.0591 121.794 41.9415 121.78 41.8223 121.771L41.5223 94.6131ZM42.7663 121.959L48.9758 95.5119C51.4417 96.118 53.7921 97.0178 55.9878 98.1722L43.0987 122.085C42.9903 122.038 42.8794 121.996 42.7663 121.959ZM43.6375 122.368L55.9955 98.1762C58.2248 99.3491 60.2945 100.784 62.1635 102.441L43.9298 122.57C43.8356 122.499 43.7381 122.431 43.6375 122.368ZM44.3853 122.974L62.1701 102.447C64.0438 104.108 65.7156 105.992 67.1442 108.058L44.621 123.24C44.5464 123.148 44.4677 123.059 44.3853 122.974ZM44.9673 123.741L67.1492 108.065C68.5652 110.113 69.742 112.339 70.6393 114.703L45.1327 124.055C45.0821 123.948 45.0269 123.843 44.9673 123.741ZM45.3487 124.624L70.6423 114.711C71.5181 117.02 72.1272 119.46 72.432 121.994L45.4335 124.969C45.4103 124.852 45.3819 124.737 45.3487 124.624ZM45.5062 125.574L72.433 122.002C72.5805 123.231 72.6564 124.483 72.6564 125.752C72.6564 127.02 72.5805 128.272 72.433 129.501L45.5062 125.929C45.507 125.911 45.5076 125.893 45.5082 125.876L45.5091 125.839L45.5098 125.799L45.5101 125.752C45.5101 125.692 45.5088 125.633 45.5062 125.574ZM45.4335 126.534L72.432 129.51C72.1272 132.043 71.5181 134.483 70.6423 136.792L45.3487 126.879C45.3819 126.766 45.4103 126.651 45.4335 126.534ZM45.1327 127.448L70.6393 136.8C69.742 139.164 68.5652 141.39 67.1492 143.438L44.9673 127.763C45.0269 127.661 45.0821 127.556 45.1327 127.448ZM44.621 128.263L67.1443 143.445C65.7156 145.511 64.0438 147.395 62.1701 149.056L44.3853 128.529C44.4677 128.444 44.5464 128.355 44.621 128.263ZM56.5119 153.049C58.545 151.93 60.4396 150.59 62.1635 149.062L43.9298 128.933C43.8673 128.98 43.8034 129.026 43.7381 129.07L56.5119 153.049Z" fill="white" fill-opacity="0.1"/>
</svg>
