<svg width="50" height="50" viewBox="0 0 50 50" fill="none" xmlns="http://www.w3.org/2000/svg">
<path fill-rule="evenodd" clip-rule="evenodd" d="M25 0C11.1929 0 0 11.1929 0 25C0 37.5326 9.22184 47.9113 21.25 49.7206V38.1099C16.8805 36.5655 13.75 32.3983 13.75 27.5V22.5C13.75 16.2868 18.7868 11.25 25 11.25C31.2132 11.25 36.25 16.2868 36.25 22.5V27.5C36.25 32.3983 33.1195 36.5655 28.75 38.1099V49.7206C40.7782 47.9113 50 37.5326 50 25C50 11.1929 38.8071 0 25 0Z" fill="white"/>
<path fill-rule="evenodd" clip-rule="evenodd" d="M25.0001 13.75C20.1676 13.75 16.2501 17.6675 16.2501 22.5V27.5C16.2501 31.9081 19.5097 35.5548 23.7501 36.1614V50H26.2501V36.1614C30.4904 35.5548 33.7501 31.9081 33.7501 27.5V22.5C33.7501 17.6675 29.8326 13.75 25.0001 13.75Z" fill="white"/>
</svg>
