<svg width="20" height="20" viewBox="0 0 20 20" fill="none" xmlns="http://www.w3.org/2000/svg">
<path d="M3.33331 9.99999L9.99998 3.33333L16.6666 9.99999M4.99998 8.74999V15.8333C4.99998 16.0543 5.08778 16.2663 5.24406 16.4226C5.40034 16.5789 5.6123 16.6667 5.83331 16.6667H8.33331V14.1667C8.33331 13.9456 8.42111 13.7337 8.57739 13.5774C8.73367 13.4211 8.94563 13.3333 9.16665 13.3333H10.8333C11.0543 13.3333 11.2663 13.4211 11.4226 13.5774C11.5788 13.7337 11.6666 13.9456 11.6666 14.1667V16.6667H14.1666C14.3877 16.6667 14.5996 16.5789 14.7559 16.4226C14.9122 16.2663 15 16.0543 15 15.8333V8.74999" stroke="white" stroke-width="1.66667" stroke-linecap="round" stroke-linejoin="round"/>
</svg>
