<svg width="20" height="20" viewBox="0 0 20 20" fill="none" xmlns="http://www.w3.org/2000/svg">
<path d="M10 3.44133C12.136 3.44133 12.3893 3.44933 13.2327 3.488C14.1047 3.528 15.0027 3.72667 15.638 4.362C16.2793 5.00333 16.472 5.89267 16.512 6.76733C16.5507 7.61067 16.5587 7.864 16.5587 10C16.5587 12.136 16.5507 12.3893 16.512 13.2327C16.4727 14.1 16.2693 15.0067 15.638 15.638C14.9967 16.2793 14.108 16.472 13.2327 16.512C12.3893 16.5507 12.136 16.5587 10 16.5587C7.864 16.5587 7.61067 16.5507 6.76733 16.512C5.90667 16.4727 4.988 16.2647 4.362 15.638C3.724 15 3.528 14.102 3.488 13.2327C3.44933 12.3893 3.44133 12.136 3.44133 10C3.44133 7.864 3.44933 7.61067 3.488 6.76733C3.52733 5.90333 3.73267 4.99133 4.362 4.362C5.002 3.722 5.89467 3.528 6.76733 3.488C7.61067 3.44933 7.864 3.44133 10 3.44133ZM10 2C7.82733 2 7.55467 2.00933 6.70133 2.048C5.46467 2.10467 4.23667 2.44867 3.34267 3.34267C2.44533 4.24 2.10467 5.46533 2.048 6.70133C2.00933 7.55467 2 7.82733 2 10C2 12.1727 2.00933 12.4453 2.048 13.2987C2.10467 14.534 2.45 15.7653 3.34267 16.6573C4.23933 17.554 5.46667 17.8953 6.70133 17.952C7.55467 17.9907 7.82733 18 10 18C12.1727 18 12.4453 17.9907 13.2987 17.952C14.5347 17.8953 15.764 17.5507 16.6573 16.6573C17.5553 15.7593 17.8953 14.5347 17.952 13.2987C17.9907 12.4453 18 12.1727 18 10C18 7.82733 17.9907 7.55467 17.952 6.70133C17.8953 5.46467 17.5507 4.236 16.6573 3.34267C15.762 2.44733 14.5313 2.104 13.2987 2.048C12.4453 2.00933 12.1727 2 10 2Z" fill="white" fill-opacity="0.7"/>
<path d="M9.99997 5.892C7.7313 5.892 5.89197 7.73133 5.89197 10C5.89197 12.2687 7.7313 14.108 9.99997 14.108C12.2686 14.108 14.108 12.2687 14.108 10C14.108 7.73133 12.2686 5.892 9.99997 5.892ZM9.99997 12.6667C8.5273 12.6667 7.3333 11.4727 7.3333 10C7.3333 8.52733 8.5273 7.33333 9.99997 7.33333C11.4726 7.33333 12.6666 8.52733 12.6666 10C12.6666 11.4727 11.4726 12.6667 9.99997 12.6667Z" fill="white" fill-opacity="0.7"/>
<path d="M14.2707 6.68933C14.8009 6.68933 15.2307 6.25953 15.2307 5.72933C15.2307 5.19914 14.8009 4.76933 14.2707 4.76933C13.7405 4.76933 13.3107 5.19914 13.3107 5.72933C13.3107 6.25953 13.7405 6.68933 14.2707 6.68933Z" fill="white" fill-opacity="0.7"/>
</svg>
