<svg width="20" height="20" viewBox="0 0 20 20" fill="none" xmlns="http://www.w3.org/2000/svg">
<path d="M16.9763 8.57761C15.5502 8.57761 14.2281 8.12159 13.1494 7.34689V12.9371C13.1494 15.7292 10.878 18 8.08656 18C7.00785 18 6.00714 17.66 5.1851 17.0826C3.87972 16.1659 3.02368 14.6499 3.02368 12.9371C3.02368 10.145 5.29511 7.87358 8.08723 7.87358C8.31924 7.87358 8.54591 7.89291 8.76925 7.92291V8.57427V10.731C8.55325 10.6637 8.32524 10.6244 8.08723 10.6244C6.81251 10.6244 5.77513 11.6617 5.77513 12.9371C5.77513 13.8252 6.27915 14.5965 7.01518 14.9839C7.33586 15.1525 7.70054 15.2492 8.08789 15.2492C9.33328 15.2492 10.3493 14.2585 10.396 13.0238L10.398 2H13.1488C13.1488 2.23868 13.1721 2.47135 13.2134 2.69803C13.4074 3.74607 14.0295 4.64544 14.8915 5.20747C15.4915 5.59882 16.2076 5.82749 16.9756 5.82749L16.9763 8.57761Z" fill="white" fill-opacity="0.7"/>
</svg>
