<svg width="150" height="50" viewBox="0 0 150 50" fill="none" xmlns="http://www.w3.org/2000/svg">
<path fill-rule="evenodd" clip-rule="evenodd" d="M2.80469 6.96501C2.80469 6.46615 3.2091 6.06174 3.70796 6.06174H6.4178C6.91666 6.06174 7.32107 6.46615 7.32107 6.96501V13.288L14.2827 6.3263C14.4521 6.1569 14.6819 6.06174 14.9214 6.06174H18.6895C19.4943 6.06174 19.8973 7.03469 19.3282 7.60373L11.8375 15.0945H11.8375L19.3283 22.5853C19.8973 23.1543 19.4943 24.1273 18.6896 24.1273H14.9215C14.6819 24.1273 14.4522 24.0321 14.2828 23.8627L8.67602 18.2559L7.32107 19.6109V23.224C7.32107 23.7229 6.91666 24.1273 6.4178 24.1273H3.70796C3.2091 24.1273 2.80469 23.7229 2.80469 23.224V6.96501Z" fill="white"/>
<path fill-rule="evenodd" clip-rule="evenodd" d="M135.147 17.7805L137.291 12.065L139.434 17.7805H135.147ZM140.787 21.3902H133.794L132.998 23.512C132.866 23.8642 132.529 24.0976 132.153 24.0976H129.148C128.509 24.0976 128.073 23.4527 128.31 22.86L134.808 6.61602C134.945 6.2734 135.276 6.04874 135.645 6.04874H136.337H138.244H138.936C139.305 6.04874 139.637 6.2734 139.774 6.61602L146.271 22.86C146.508 23.4527 146.072 24.0976 145.433 24.0976H142.428C142.052 24.0976 141.715 23.8642 141.583 23.512L140.787 21.3902Z" fill="white"/>
<path fill-rule="evenodd" clip-rule="evenodd" d="M116.512 6.04874C116.014 6.04874 115.61 6.45277 115.61 6.95118V10.5609H124.634V12.817C124.634 16.5551 121.604 19.5854 117.866 19.5854H116.512C116.014 19.5854 115.61 19.9894 115.61 20.4878V23.1951C115.61 23.6935 116.014 24.0976 116.512 24.0976H117.866C124.096 24.0976 129.146 19.0471 129.146 12.817V10.5609V9.20728V6.04874H116.512Z" fill="white"/>
<path fill-rule="evenodd" clip-rule="evenodd" d="M99.3659 6.95118C99.3659 6.45277 99.7699 6.04874 100.268 6.04874H103.878H108.39H112C112.498 6.04874 112.903 6.45277 112.903 6.95118V10.5609H108.39V19.5854H112.903V23.1951C112.903 23.6935 112.498 24.0976 112 24.0976H108.39H103.878H100.268C99.7699 24.0976 99.3659 23.6935 99.3659 23.1951V19.5854H103.878V10.5609H99.3659V6.95118Z" fill="white"/>
<path fill-rule="evenodd" clip-rule="evenodd" d="M80.8659 6.04874C80.3675 6.04874 79.9634 6.45277 79.9634 6.95118V23.1951C79.9634 23.6935 80.3675 24.0976 80.8659 24.0976H82.2195H84.4756H88.9879C93.9719 24.0976 98.0123 20.0572 98.0123 15.0732C98.0123 10.0891 93.9719 6.04874 88.9879 6.04874H84.4756H82.2195H80.8659ZM84.4756 10.5609V19.5854H88.9879C91.4799 19.5854 93.5001 17.5652 93.5001 15.0732C93.5001 12.5811 91.4799 10.5609 88.9879 10.5609H84.4756Z" fill="white"/>
<path fill-rule="evenodd" clip-rule="evenodd" d="M64.6219 6.04874C64.1235 6.04874 63.7195 6.45277 63.7195 6.95118V23.1951C63.7195 23.6935 64.1235 24.0976 64.6219 24.0976H68.2317H76.3537C76.8521 24.0976 77.2561 23.6935 77.2561 23.1951V20.4878C77.2561 19.9894 76.8521 19.5854 76.3537 19.5854H68.2317V17.3293H76.3537C76.8521 17.3293 77.2561 16.9252 77.2561 16.4268V13.7195C77.2561 13.2211 76.8521 12.817 76.3537 12.817H68.2317V10.5609H76.3537C76.8521 10.5609 77.2561 10.1569 77.2561 9.6585V6.95118C77.2561 6.45277 76.8521 6.04874 76.3537 6.04874H68.2317H64.6219Z" fill="white"/>
<path fill-rule="evenodd" clip-rule="evenodd" d="M43.8658 6.04874C43.3674 6.04874 42.9633 6.45277 42.9633 6.95118V23.1951C42.9633 23.6935 43.3674 24.0976 43.8658 24.0976H46.5731C47.0715 24.0976 47.4755 23.6935 47.4755 23.1951V16.5769L49.4974 21.2945C49.6396 21.6263 49.9658 21.8415 50.3268 21.8415H51.1001H52.8754H53.6486C54.0096 21.8415 54.3359 21.6263 54.4781 21.2945L56.4999 16.5769V23.1951C56.4999 23.6935 56.904 24.0976 57.4024 24.0976H60.1097C60.6081 24.0976 61.0121 23.6935 61.0121 23.1951V6.95118C61.0121 6.45277 60.6081 6.04874 60.1097 6.04874H59.6434H57.4024H57.0949C56.7339 6.04874 56.4076 6.26388 56.2654 6.59569L51.9877 16.5769L47.7101 6.59569C47.5679 6.26388 47.2416 6.04874 46.8806 6.04874H46.5731H44.3321H43.8658Z" fill="white"/>
<path fill-rule="evenodd" clip-rule="evenodd" d="M31.2316 3.79263C26.2475 3.79263 22.2072 7.833 22.2072 12.817V17.3293C22.2072 22.3133 26.2475 26.3537 31.2316 26.3537C36.2156 26.3537 40.256 22.3133 40.256 17.3293V12.817C40.256 7.833 36.2156 3.79263 31.2316 3.79263ZM31.2316 7.4024C28.2411 7.4024 25.8169 9.82662 25.8169 12.817V17.3293C25.8169 20.3197 28.2411 22.7439 31.2316 22.7439C34.222 22.7439 36.6462 20.3197 36.6462 17.3293V12.817C36.6462 9.82662 34.222 7.4024 31.2316 7.4024Z" fill="white"/>
<path fill-rule="evenodd" clip-rule="evenodd" d="M33.4877 24.0976C33.4877 23.5992 33.0836 23.1951 32.5852 23.1951H29.8779C29.3795 23.1951 28.9755 23.5992 28.9755 24.0976L28.9755 41.6952H23.1096C22.6112 41.6952 22.2072 42.0992 22.2072 42.5976V45.3049C22.2072 45.8033 22.6112 46.2074 23.1096 46.2074H39.3535C39.8519 46.2074 40.256 45.8033 40.256 45.3049V42.5976C40.256 42.0992 39.8519 41.6952 39.3535 41.6952H33.4877L33.4877 24.0976Z" fill="white"/>
<path fill-rule="evenodd" clip-rule="evenodd" d="M140.427 32.6708C140.818 32.6708 141.455 32.8066 141.929 33.148C142.288 33.4066 142.683 33.8573 142.683 34.9269C142.683 35.3179 142.547 35.9546 142.206 36.4288C141.947 36.7879 141.497 37.183 140.427 37.183L133.659 37.183V32.6708L140.427 32.6708ZM132.756 28.1586H140.427C141.54 28.1586 143.159 28.4739 144.565 29.4862C146.086 30.5813 147.195 32.3867 147.195 34.9269C147.195 36.0399 146.88 37.6593 145.868 39.0653C144.773 40.5862 142.967 41.6952 140.427 41.6952L133.659 41.6952V45.305C133.659 45.8034 133.255 46.2074 132.756 46.2074H130.049C129.551 46.2074 129.146 45.8034 129.146 45.305V29.061C129.146 28.5626 129.551 28.1586 130.049 28.1586L131.403 28.1586L132.756 28.1586Z" fill="white"/>
<path fill-rule="evenodd" clip-rule="evenodd" d="M126.89 45.3049C126.89 45.8033 126.486 46.2074 125.988 46.2074L109.293 46.2074C104.309 46.2074 100.268 42.167 100.268 37.183C100.268 32.1989 104.309 28.1585 109.293 28.1585L125.988 28.1585C126.486 28.1585 126.89 28.5626 126.89 29.061L126.89 31.7683C126.89 32.2667 126.486 32.6707 125.988 32.6707L109.293 32.6707C106.801 32.6707 104.781 34.6909 104.781 37.183C104.781 39.675 106.801 41.6952 109.293 41.6952L125.988 41.6952C126.486 41.6952 126.89 42.0992 126.89 42.5976L126.89 45.3049Z" fill="white"/>
<path fill-rule="evenodd" clip-rule="evenodd" d="M49.8665 39.8903L52.0098 34.1748L54.1531 39.8903H49.8665ZM55.5067 43.5001H48.5128L47.7172 45.6218C47.5851 45.974 47.2484 46.2074 46.8722 46.2074H43.8671C43.2286 46.2074 42.7921 45.5626 43.0292 44.9698L49.5268 28.7259C49.6638 28.3832 49.9956 28.1586 50.3647 28.1586H51.0559H52.9637H53.6549C54.0239 28.1586 54.3557 28.3832 54.4928 28.7259L60.9904 44.9698C61.2275 45.5626 60.7909 46.2074 60.1525 46.2074H57.1474C56.7712 46.2074 56.4345 45.974 56.3024 45.6218L55.5067 43.5001Z" fill="white"/>
<path fill-rule="evenodd" clip-rule="evenodd" d="M80.8659 28.1586C80.3675 28.1586 79.9634 28.5626 79.9634 29.061V45.305C79.9634 45.8034 80.3675 46.2074 80.8659 46.2074H82.2195H84.4756H88.9879C93.9719 46.2074 98.0123 42.167 98.0123 37.183C98.0123 32.1989 93.9719 28.1586 88.9879 28.1586H84.4756H82.2195H80.8659ZM84.4756 32.6708V41.6952H88.9879C91.4799 41.6952 93.5001 39.675 93.5001 37.183C93.5001 34.691 91.4799 32.6708 88.9879 32.6708H84.4756Z" fill="white"/>
<path fill-rule="evenodd" clip-rule="evenodd" d="M63.7195 29.061C63.7195 28.5626 64.1235 28.1586 64.6219 28.1586H65.1797H67.3292H67.6739C68.0158 28.1586 68.3283 28.3517 68.4811 28.6574L72.7439 37.183V29.061C72.7439 28.5626 73.1479 28.1586 73.6463 28.1586H76.3537C76.8521 28.1586 77.2561 28.5626 77.2561 29.061V45.305C77.2561 45.8034 76.8521 46.2074 76.3537 46.2074H75.7959H73.6463H73.3016C72.9598 46.2074 72.6473 46.0143 72.4945 45.7085L68.2317 37.183V45.305C68.2317 45.8034 67.8277 46.2074 67.3292 46.2074H64.6219C64.1235 46.2074 63.7195 45.8034 63.7195 45.305V29.061Z" fill="white"/>
<path fill-rule="evenodd" clip-rule="evenodd" d="M18.5974 28.1586C19.0958 28.1586 19.4999 28.5626 19.4999 29.061V31.7683C19.4999 32.2667 19.0958 32.6708 18.5974 32.6708L6.41445 32.6708L6.41445 35.3781L18.5974 35.3781C19.0958 35.3781 19.4999 35.7821 19.4999 36.2805V37.6342V38.0854V42.5976V43.5001V45.305C19.4999 45.8034 19.0958 46.2074 18.5974 46.2074H3.70713C3.20872 46.2074 2.80469 45.8034 2.80469 45.305V42.5976C2.80469 42.0992 3.20872 41.6952 3.70713 41.6952L15.8901 41.6952V38.9879L3.70713 38.9879C3.20872 38.9879 2.80469 38.5838 2.80469 38.0854V36.7318V36.2805V31.7683V30.8659V29.061C2.80469 28.5626 3.20872 28.1586 3.70713 28.1586L18.5974 28.1586Z" fill="white"/>
</svg>
