<svg width="20" height="20" viewBox="0 0 20 20" fill="none" xmlns="http://www.w3.org/2000/svg">
<path d="M9.16665 7.5H4.16665C3.94563 7.5 3.73367 7.5878 3.57739 7.74408C3.42111 7.90036 3.33331 8.11232 3.33331 8.33333V11.6667C3.33331 11.8877 3.42111 12.0996 3.57739 12.2559C3.73367 12.4122 3.94563 12.5 4.16665 12.5H9.16665M9.16665 7.5V12.5M9.16665 7.5L13.6825 4.275C13.807 4.18613 13.9535 4.13324 14.1061 4.12212C14.2586 4.11101 14.4113 4.14209 14.5474 4.21197C14.6834 4.28185 14.7976 4.38784 14.8775 4.51831C14.9573 4.64878 14.9997 4.79871 15 4.95167V15.0467C15 15.1998 14.9578 15.3499 14.8781 15.4806C14.7984 15.6113 14.6842 15.7176 14.5481 15.7876C14.412 15.8577 14.2592 15.889 14.1065 15.8779C13.9538 15.8669 13.8071 15.814 13.6825 15.725L9.16665 12.5M15 12.5C15.663 12.5 16.2989 12.2366 16.7677 11.7678C17.2366 11.2989 17.5 10.663 17.5 10C17.5 9.33696 17.2366 8.70107 16.7677 8.23223C16.2989 7.76339 15.663 7.5 15 7.5M4.99998 12.5H7.49998V16.6667H4.99998V12.5Z" stroke="white" stroke-width="1.66667" stroke-linecap="round" stroke-linejoin="round"/>
</svg>
