<svg width="20" height="20" viewBox="0 0 20 20" fill="none" xmlns="http://www.w3.org/2000/svg">
<path d="M5.83331 14.1667V15C5.83331 15.221 5.92111 15.433 6.07739 15.5893C6.23367 15.7455 6.44563 15.8333 6.66665 15.8333H13.3333C13.5543 15.8333 13.7663 15.7455 13.9226 15.5893C14.0788 15.433 14.1666 15.221 14.1666 15V14.1667C14.1666 13.5036 13.9033 12.8677 13.4344 12.3989C12.9656 11.9301 12.3297 11.6667 11.6666 11.6667H8.33331C7.67027 11.6667 7.03439 11.9301 6.56555 12.3989C6.09671 12.8677 5.83331 13.5036 5.83331 14.1667ZM12.5 6.66667C12.5 7.32971 12.2366 7.9656 11.7677 8.43444C11.2989 8.90328 10.663 9.16667 9.99998 9.16667C9.33694 9.16667 8.70105 8.90328 8.23221 8.43444C7.76337 7.9656 7.49998 7.32971 7.49998 6.66667C7.49998 6.00363 7.76337 5.36775 8.23221 4.8989C8.70105 4.43006 9.33694 4.16667 9.99998 4.16667C10.663 4.16667 11.2989 4.43006 11.7677 4.8989C12.2366 5.36775 12.5 6.00363 12.5 6.66667Z" fill="white"/>
</svg>
